<svg xmlns="http://www.w3.org/2000/svg" xmlns:svg="http://www.w3.org/2000/svg" id="svg2" width="512" height="512" version="1.1"><g id="layer1" transform="translate(0,-540.36218)"><g id="g4305"><g id="g4345" transform="translate(28,-40.00001)"><g id="text2994" style="font-size:550px;font-style:normal;font-variant:normal;font-weight:400;font-stretch:normal;text-align:start;line-height:125%;letter-spacing:0;word-spacing:0;writing-mode:lr-tb;text-anchor:start;fill:#222;fill-opacity:1;stroke:none;font-family:Ubuntu;-inkscape-font-specification:Ubuntu"><g id="layer1-1-1" transform="matrix(0.8,0,0,0.8,120.63721,336.56725)" style="font-size:550px;font-style:normal;font-variant:normal;font-weight:400;font-stretch:normal;text-align:start;line-height:125%;letter-spacing:0;word-spacing:0;writing-mode:lr-tb;text-anchor:start;fill:#2980b9;fill-opacity:1;stroke:none;font-family:Ubuntu;-inkscape-font-specification:Ubuntu"><g id="g3989" transform="translate(94.875498,-44.842982)"><g id="layer1-1-7" transform="translate(-266.66383,-76.760125)" style="font-size:550px;font-style:normal;font-variant:normal;font-weight:400;font-stretch:normal;text-align:start;line-height:125%;letter-spacing:0;word-spacing:0;writing-mode:lr-tb;text-anchor:start;fill:#222;fill-opacity:1;stroke:none;font-family:Ubuntu;-inkscape-font-specification:Ubuntu"><path id="path3833-1" d="m 280.55482,571.22252 a 20.002,20.002 0 0 0 -2.78125,0.28125 l -176.90625,0 a 20.002,20.002 0 0 0 -20.000003,20 l 0,410.00003 a 20.002,20.002 0 0 0 20.000003,20 l 310,0 a 20.002,20.002 0 0 0 20,-20 l 0,-276.75003 a 20.002,20.002 0 0 0 -7.53125,-19.09375 L 296.61732,578.94127 a 20.002,20.002 0 0 0 -16.0625,-7.71875 z m -159.6875,40.28125 140,0 0,106.78125 a 20.002,20.002 0 0 0 5.75,17.53125 20.002,20.002 0 0 0 0.15625,0.15625 20.002,20.002 0 0 0 0.28125,0.25 20.002,20.002 0 0 0 17.09375,5.28125 l 106.71875,0 0,240 -270,0 0,-370 z m 180,28.28125 61.71875,61.71875 -61.71875,0 0,-61.71875 z" style="font-size:medium;font-style:normal;font-variant:normal;font-weight:400;font-stretch:normal;text-indent:0;text-align:start;text-decoration:none;line-height:normal;letter-spacing:normal;word-spacing:normal;text-transform:none;direction:ltr;block-progression:tb;writing-mode:lr-tb;text-anchor:start;baseline-shift:baseline;color:#000;fill:#222;fill-opacity:1;fill-rule:nonzero;stroke:none;stroke-width:40;marker:none;visibility:visible;display:inline;overflow:visible;enable-background:accumulate;font-family:Sans;-inkscape-font-specification:Sans"/></g><path id="path3833-4" d="m 113.89099,394.43117 c -0.93025,0.0394 -1.85774,0.14395 -2.77344,0.3125 l -176.914059,0 c -5.235845,5.2e-4 -10.439249,2.15615 -14.14155,5.85845 -3.702301,3.7023 -5.857926,8.90571 -5.85845,14.14155 l 0,55 40,0 0,-35 140,0 0,81.67969 48.320309,48.32031 81.67969,0 0,240 -35,0 0,40 55,0 c 5.23584,-5.2e-4 10.43925,-2.15615 14.14155,-5.85845 3.7023,-3.7023 5.85793,-8.90571 5.85845,-14.14155 l 0,-276.75781 c 1.1676,-7.09283 -1.84196,-14.71812 -7.53906,-19.10157 L 129.94568,402.16554 c -3.77547,-4.86309 -9.89858,-7.81291 -16.05469,-7.73437 z m 20.3125,68.59375 61.71875,61.71875 -61.71875,0 z" style="font-size:medium;font-style:normal;font-variant:normal;font-weight:400;font-stretch:normal;text-indent:0;text-align:start;text-decoration:none;line-height:normal;letter-spacing:normal;word-spacing:normal;text-transform:none;direction:ltr;block-progression:tb;writing-mode:lr-tb;text-anchor:start;baseline-shift:baseline;color:#000;fill:#2980b9;fill-opacity:1;fill-rule:nonzero;stroke:none;stroke-width:40;marker:none;visibility:visible;display:inline;overflow:visible;enable-background:accumulate;font-family:Sans;-inkscape-font-specification:Sans"/></g></g></g></g></g></g></svg>